<?xml version="1.0" encoding="UTF-8"?>
<!--Generator: Apple Native CoreSVG 232.5-->
<!DOCTYPE svg
PUBLIC "-//W3C//DTD SVG 1.1//EN"
       "http://www.w3.org/Graphics/SVG/1.1/DTD/svg11.dtd">
<svg version="1.1" xmlns="http://www.w3.org/2000/svg" xmlns:xlink="http://www.w3.org/1999/xlink" width="299.219" height="291.311">
 <g>
  <rect height="291.311" opacity="0" width="299.219" x="0" y="0"/>
  <path d="M198.535 287.794L236.621 221.974C238.574 218.556 237.598 214.65 234.277 212.892C231.055 211.134 227.246 211.915 225.293 215.431L187.402 281.154C185.449 284.571 186.328 288.478 189.648 290.431C192.676 292.286 196.777 291.114 198.535 287.794Z" fill="#ffffff"/>
  <path d="M148.633 287.696L186.426 222.169C188.574 218.556 187.5 214.845 184.18 212.892C180.859 210.939 177.148 211.915 175 215.529L137.109 281.349C135.254 284.571 136.035 288.478 139.453 290.431C142.773 292.286 146.68 291.114 148.633 287.696Z" fill="#ffffff"/>
  <path d="M98.5352 287.696L136.328 222.169C138.379 218.556 137.305 214.845 134.082 212.892C130.762 210.939 126.953 211.915 124.902 215.529L86.9141 281.349C85.1562 284.571 85.9375 288.478 89.3555 290.431C92.6758 292.286 96.582 291.114 98.5352 287.696Z" fill="#ffffff"/>
  <path d="M48.2422 287.696L86.1328 222.169C88.1836 218.556 87.1094 214.845 83.7891 212.892C80.4688 210.939 76.7578 211.915 74.707 215.529L36.7188 281.349C34.8633 284.571 35.7422 288.478 39.0625 290.431C42.3828 292.286 46.2891 291.114 48.2422 287.696Z" fill="#ffffff"/>
  <path d="M70.9961 192.482L227.93 192.482C268.652 192.482 299.219 161.622 299.219 123.341C299.219 83.7902 266.797 54.884 224.609 54.884C208.789 23.4387 180.078 3.12616 143.164 3.12616C96.2891 3.12616 57.7148 40.3332 53.6133 87.1105C30.5664 93.6535 12.8906 113.087 12.8906 139.65C12.8906 168.751 34.1797 192.482 70.9961 192.482Z" fill="#ffffff"/>
 </g>
</svg>
