<?xml version="1.0" encoding="UTF-8"?>
<!--Generator: Apple Native CoreSVG 232.5-->
<!DOCTYPE svg
PUBLIC "-//W3C//DTD SVG 1.1//EN"
       "http://www.w3.org/Graphics/SVG/1.1/DTD/svg11.dtd">
<svg version="1.1" xmlns="http://www.w3.org/2000/svg" xmlns:xlink="http://www.w3.org/1999/xlink" width="389.258" height="268.848">
 <g>
  <rect height="268.848" opacity="0" width="389.258" x="0" y="0"/>
  <path d="M330.664 190.723L351.562 211.621C355.078 215.137 354.98 220.703 351.562 224.023C348.145 227.441 342.578 227.637 339.16 224.121L318.164 203.223C314.746 199.805 314.746 194.141 318.164 190.723C321.582 187.402 327.246 187.402 330.664 190.723ZM321.387 132.422C321.387 155.167 308.775 175.213 290.226 185.845C286.341 150.408 257.462 124.045 219.824 120.508C215.813 114.013 211.201 108.076 206.03 102.818C216.555 83.7966 236.841 70.8008 259.863 70.8008C293.555 70.8008 321.387 98.6328 321.387 132.422ZM389.258 132.52C389.258 137.402 385.352 141.309 380.469 141.309L351.074 141.309C346.289 141.309 342.188 137.402 342.188 132.52C342.188 127.734 346.289 123.73 351.074 123.73L380.469 123.73C385.352 123.73 389.258 127.734 389.258 132.52ZM351.562 40.8203C354.98 44.2383 355.078 50 351.562 53.418L330.762 74.3164C327.246 77.7344 321.582 77.6367 318.164 74.3164C314.746 70.8984 314.746 65.2344 318.164 61.9141L339.16 40.8203C342.578 37.4023 348.145 37.5 351.562 40.8203ZM180.762 40.8203L201.66 61.9141C204.98 65.1367 204.98 70.9961 201.562 74.3164C198.242 77.6367 192.48 77.6367 189.16 74.3164L168.262 53.3203C164.941 50 164.941 44.2383 168.359 40.8203C171.777 37.5 177.441 37.5 180.762 40.8203ZM268.848 11.6211L268.848 41.2109C268.848 45.8984 264.746 49.9023 259.961 49.9023C255.176 49.9023 251.074 45.8984 251.074 41.2109L251.074 11.6211C251.074 6.93359 255.176 2.83203 259.961 2.83203C264.746 2.83203 268.848 6.93359 268.848 11.6211Z" fill="#F5A623"/>
  <path d="M77.3438 255.273L214.16 255.273C249.609 255.273 277.148 228.516 277.148 194.141C277.148 159.863 249.121 133.984 211.816 133.691C197.363 106.055 171.777 88.6719 140.234 88.6719C99.5117 88.6719 65.332 120.703 61.5234 162.012C40.5273 168.164 25.7812 185.645 25.7812 208.398C25.7812 235.449 46.0938 255.273 77.3438 255.273Z" fill="#ffffff"/>
 </g>
</svg>
