<?xml version="1.0" encoding="UTF-8"?>
<!--Generator: Apple Native CoreSVG 232.5-->
<!DOCTYPE svg
PUBLIC "-//W3C//DTD SVG 1.1//EN"
       "http://www.w3.org/Graphics/SVG/1.1/DTD/svg11.dtd">
<svg version="1.1" xmlns="http://www.w3.org/2000/svg" xmlns:xlink="http://www.w3.org/1999/xlink" width="299.219" height="285.059">
 <g>
  <rect height="285.059" opacity="0" width="299.219" x="0" y="0"/>
  <path d="M240.234 262.402L74.4141 262.402C70.5078 262.402 67.4805 265.332 67.4805 269.238C67.4805 273.242 70.5078 276.172 74.4141 276.172L240.234 276.172C244.141 276.172 247.266 273.242 247.266 269.238C247.266 265.332 244.141 262.402 240.234 262.402Z" fill="#ffffff"/>
  <path d="M240.234 219.531L74.4141 219.531C70.5078 219.531 67.4805 222.559 67.4805 226.465C67.4805 230.469 70.5078 233.398 74.4141 233.398L240.234 233.398C244.141 233.398 247.266 230.469 247.266 226.465C247.266 222.559 244.141 219.531 240.234 219.531Z" fill="#ffffff"/>
  <path d="M70.9961 189.355L227.93 189.355C268.652 189.355 299.219 158.496 299.219 120.215C299.219 80.6641 266.797 51.7578 224.609 51.7578C208.789 20.3125 180.078 0 143.164 0C96.2891 0 57.7148 37.207 53.6133 83.9844C30.5664 90.5273 12.8906 109.961 12.8906 136.523C12.8906 165.625 34.1797 189.355 70.9961 189.355Z" fill="#ffffff"/>
 </g>
</svg>
