<?xml version="1.0" encoding="UTF-8"?>
<!--Generator: Apple Native CoreSVG 232.5-->
<!DOCTYPE svg
PUBLIC "-//W3C//DTD SVG 1.1//EN"
       "http://www.w3.org/Graphics/SVG/1.1/DTD/svg11.dtd">
<svg version="1.1" xmlns="http://www.w3.org/2000/svg" xmlns:xlink="http://www.w3.org/1999/xlink" width="346.875" height="325.301">
 <g>
  <rect height="325.301" opacity="0" width="346.875" x="0" y="0"/>
  <path d="M161.328 242.973L149.268 265.727L173.145 265.727C176.66 265.727 177.637 269.047 175.195 271.684L126.758 323.735C125.488 325.199 124.121 325.59 122.949 325.102C121.777 324.614 121.387 323.246 122.07 321.489L138.034 283.012L118.066 283.012C114.941 283.012 113.379 281.156 114.746 278.129L130.566 241.996C131.738 239.457 132.91 238.09 136.426 238.09L158.887 238.09C161.621 238.09 162.793 240.239 161.328 242.973Z" fill="#ffffff"/>
  <path d="M266.504 14.8479C266.504 20.9026 258.203 32.9143 258.203 49.2229C258.203 79.3987 276.66 96.9768 308.789 96.9768C325.684 96.9768 335.645 89.6526 341.211 89.6526C344.824 89.6526 346.875 92.7776 346.875 97.0744C346.875 114.866 326.495 149.697 284.22 154.769C282.691 116.702 252.977 87.887 213.477 84.1838C210.091 78.6895 206.313 73.6438 202.185 69.0786C207.736 35.8057 234.883 10.6424 259.082 8.98851C264.062 8.7932 266.504 11.1369 266.504 14.8479Z" fill="#ffffff"/>
  <path d="M70.7031 218.656L207.617 218.656C242.676 218.656 270.02 192.094 270.02 158.012C270.02 123.93 242.188 98.2463 204.883 98.051C190.039 69.4377 164.16 53.0315 133.691 53.0315C93.2617 53.0315 58.9844 84.8674 55.3711 126.274C33.5938 132.524 19.7266 150.395 19.7266 172.27C19.7266 199.711 40.5273 218.656 70.7031 218.656Z" fill="#ffffff"/>
 </g>
</svg>
