<?xml version="1.0" encoding="UTF-8"?>
<!--Generator: Apple Native CoreSVG 232.5-->
<!DOCTYPE svg
PUBLIC "-//W3C//DTD SVG 1.1//EN"
       "http://www.w3.org/Graphics/SVG/1.1/DTD/svg11.dtd">
<svg version="1.1" xmlns="http://www.w3.org/2000/svg" xmlns:xlink="http://www.w3.org/1999/xlink" width="299.219" height="318.856">
 <g>
  <rect height="318.856" opacity="0" width="299.219" x="0" y="0"/>
  <path d="M182.422 255.082L155.078 255.082L155.176 260.16L171.289 229.399C172.656 226.664 171.582 224.516 168.75 224.516L145.508 224.516C141.992 224.516 140.625 225.785 139.551 228.422L122.266 267.875C120.898 271 122.363 272.856 125.684 272.856L147.754 272.856L149.316 265.336L128.906 314.946C128.223 316.703 128.613 318.168 129.785 318.656C130.957 319.145 132.422 318.754 133.691 317.289L184.57 261.235C187.109 258.5 186.035 255.082 182.422 255.082Z" fill="#ffffff"/>
  <path d="M70.9961 206.254L227.93 206.254C268.652 206.254 299.219 175.395 299.219 137.114C299.219 97.5627 266.797 68.6565 224.609 68.6565C208.789 37.2112 180.078 16.8987 143.164 16.8987C96.2891 16.8987 57.7148 54.1057 53.6133 100.883C30.5664 107.426 12.8906 126.86 12.8906 153.422C12.8906 182.524 34.1797 206.254 70.9961 206.254Z" fill="#ffffff"/>
 </g>
</svg>
