<?xml version="1.0" encoding="UTF-8"?>
<!--Generator: Apple Native CoreSVG 232.5-->
<!DOCTYPE svg
PUBLIC "-//W3C//DTD SVG 1.1//EN"
       "http://www.w3.org/Graphics/SVG/1.1/DTD/svg11.dtd">
<svg version="1.1" xmlns="http://www.w3.org/2000/svg" xmlns:xlink="http://www.w3.org/1999/xlink" width="342.48" height="232.715">
 <g>
  <rect height="232.715" opacity="0" width="342.48" x="0" y="0"/>
  <path d="M262.109 14.5508C262.109 20.5078 253.711 32.5195 253.711 48.9258C253.711 79.0039 272.266 96.6797 304.297 96.6797C321.191 96.6797 331.25 89.2578 336.719 89.2578C340.43 89.2578 342.48 92.3828 342.48 96.6797C342.48 114.547 322.05 149.343 279.829 154.457C278.339 116.354 248.608 87.5899 208.984 83.7891C205.598 78.312 201.823 73.2766 197.698 68.717C203.264 35.394 230.41 10.2577 254.688 8.69141C259.57 8.39844 262.109 10.7422 262.109 14.5508Z" fill="#ffffff"/>
  <path d="M66.3086 218.359L203.125 218.359C238.281 218.359 265.527 191.797 265.527 157.617C265.527 123.535 237.695 97.8516 200.488 97.7539C185.547 69.043 159.668 52.7344 129.199 52.7344C88.7695 52.7344 54.4922 84.5703 50.8789 125.879C29.1016 132.129 15.2344 150 15.2344 171.875C15.2344 199.414 36.0352 218.359 66.3086 218.359Z" fill="#ffffff"/>
 </g>
</svg>
