<?xml version="1.0" encoding="UTF-8"?>
<!--Generator: Apple Native CoreSVG 232.5-->
<!DOCTYPE svg
PUBLIC "-//W3C//DTD SVG 1.1//EN"
       "http://www.w3.org/Graphics/SVG/1.1/DTD/svg11.dtd">
<svg version="1.1" xmlns="http://www.w3.org/2000/svg" xmlns:xlink="http://www.w3.org/1999/xlink" width="299.219" height="296.191">
 <g>
  <rect height="296.191" opacity="0" width="299.219" x="0" y="0"/>
  <path d="M218.555 241.309L227.93 224.902C229.98 221.484 229.004 217.578 225.684 215.625C222.363 213.77 218.555 214.941 216.504 218.262L207.031 234.863C205.273 238.086 206.055 241.992 209.473 243.945C212.695 245.801 216.699 244.629 218.555 241.309ZM197.949 277.344C204.98 277.344 210.938 271.387 210.938 264.16C210.938 257.129 205.078 251.172 197.949 251.172C190.723 251.172 184.863 257.129 184.863 264.16C184.863 271.387 190.723 277.344 197.949 277.344Z" fill="#ffffff"/>
  <path d="M141.504 260.059L162.012 224.609C163.965 221.094 162.988 217.285 159.766 215.332C156.445 213.379 152.539 214.453 150.586 217.969L129.98 253.711C128.125 256.934 129.004 260.84 132.422 262.793C135.645 264.648 139.648 263.477 141.504 260.059ZM120.898 296.191C127.93 296.191 133.887 290.137 133.887 283.008C133.887 275.977 128.027 270.02 120.898 270.02C113.672 270.02 107.812 275.977 107.812 283.008C107.812 290.137 113.672 296.191 120.898 296.191Z" fill="#ffffff"/>
  <path d="M86.5234 240.82L95.8984 224.414C97.9492 220.996 96.9727 217.09 93.6523 215.137C90.332 213.281 86.4258 214.453 84.4727 217.773L75 234.375C73.1445 237.695 74.0234 241.504 77.3438 243.457C80.6641 245.312 84.668 244.141 86.5234 240.82ZM65.918 276.855C72.9492 276.855 78.9062 270.898 78.9062 263.672C78.9062 256.641 73.0469 250.684 65.918 250.684C58.6914 250.684 52.7344 256.641 52.7344 263.672C52.7344 270.898 58.6914 276.855 65.918 276.855Z" fill="#ffffff"/>
  <path d="M70.9961 194.922L227.93 194.922C268.652 194.922 299.219 164.062 299.219 125.781C299.219 86.2305 266.797 57.3242 224.609 57.3242C208.789 25.8789 180.078 5.56641 143.164 5.56641C96.2891 5.56641 57.7148 42.7734 53.6133 89.5508C30.5664 96.0938 12.8906 115.527 12.8906 142.09C12.8906 171.191 34.1797 194.922 70.9961 194.922Z" fill="#ffffff"/>
 </g>
</svg>
