<?xml version="1.0" encoding="UTF-8"?>
<!--Generator: Apple Native CoreSVG 232.5-->
<!DOCTYPE svg
PUBLIC "-//W3C//DTD SVG 1.1//EN"
       "http://www.w3.org/Graphics/SVG/1.1/DTD/svg11.dtd">
<svg version="1.1" xmlns="http://www.w3.org/2000/svg" xmlns:xlink="http://www.w3.org/1999/xlink" width="299.219" height="290.571">
 <g>
  <rect height="290.571" opacity="0" width="299.219" x="0" y="0"/>
  <path d="M212.793 286.936L229.98 257.053C232.129 253.538 231.055 249.729 227.734 247.776C224.414 245.92 220.703 246.995 218.555 250.413L201.172 280.491C199.316 283.811 200.195 287.62 203.613 289.573C206.934 291.428 210.84 290.354 212.793 286.936Z" fill="#ffffff"/>
  <path d="M173.145 251.487L190.43 221.604C192.578 218.186 191.504 214.28 188.184 212.327C184.863 210.471 181.055 211.545 179.004 214.963L161.621 245.139C159.766 248.362 160.645 252.17 164.062 254.124C167.285 255.979 171.289 254.905 173.145 251.487Z" fill="#ffffff"/>
  <path d="M112.5 287.034L129.785 257.151C131.836 253.635 130.762 249.827 127.441 247.874C124.121 246.018 120.41 247.092 118.359 250.51L100.977 280.588C99.0234 283.909 99.9023 287.717 103.32 289.67C106.641 291.526 110.547 290.452 112.5 287.034Z" fill="#ffffff"/>
  <path d="M72.9492 251.584L90.2344 221.702C92.2852 218.284 91.2109 214.377 87.8906 212.424C84.5703 210.569 80.8594 211.643 78.7109 215.159L61.4258 245.237C59.4727 248.459 60.3516 252.366 63.7695 254.319C67.0898 256.077 70.9961 255.002 72.9492 251.584Z" fill="#ffffff"/>
  <path d="M70.9961 192.112L227.93 192.112C268.652 192.112 299.219 161.252 299.219 122.971C299.219 83.4204 266.797 54.5142 224.609 54.5142C208.789 23.0689 180.078 2.75637 143.164 2.75637C96.2891 2.75637 57.7148 39.9634 53.6133 86.7407C30.5664 93.2837 12.8906 112.717 12.8906 139.28C12.8906 168.381 34.1797 192.112 70.9961 192.112Z" fill="#ffffff"/>
 </g>
</svg>
