<?xml version="1.0" encoding="UTF-8"?>
<!--Generator: Apple Native CoreSVG 232.5-->
<!DOCTYPE svg
PUBLIC "-//W3C//DTD SVG 1.1//EN"
       "http://www.w3.org/Graphics/SVG/1.1/DTD/svg11.dtd">
<svg version="1.1" xmlns="http://www.w3.org/2000/svg" xmlns:xlink="http://www.w3.org/1999/xlink" width="299.219" height="291.353">
 <g>
  <rect height="291.353" opacity="0" width="299.219" x="0" y="0"/>
  <path d="M202.637 287.717L240.625 221.897C242.676 218.479 241.699 214.768 238.477 212.815C235.352 210.862 231.445 211.838 229.297 215.354L191.504 281.077C189.551 284.495 190.43 288.401 193.75 290.354C196.973 292.112 200.684 291.135 202.637 287.717Z" fill="#ffffff"/>
  <path d="M173.145 251.877L190.43 221.995C192.578 218.577 191.504 214.67 188.184 212.717C184.863 210.862 181.055 211.936 179.004 215.354L161.621 245.53C159.766 248.752 160.645 252.561 164.062 254.514C167.285 256.37 171.289 255.295 173.145 251.877Z" fill="#ffffff"/>
  <path d="M102.344 287.815L140.43 221.995C142.383 218.577 141.406 214.866 138.184 212.913C135.059 210.959 131.055 211.936 129.102 215.452L91.2109 281.174C89.2578 284.592 90.2344 288.499 93.457 290.452C96.6797 292.307 100.391 291.233 102.344 287.815Z" fill="#ffffff"/>
  <path d="M72.9492 251.975L90.2344 222.092C92.2852 218.674 91.2109 214.768 87.8906 212.815C84.5703 210.959 80.8594 212.034 78.7109 215.549L61.4258 245.627C59.4727 248.85 60.3516 252.756 63.7695 254.709C67.0898 256.467 70.9961 255.393 72.9492 251.975Z" fill="#ffffff"/>
  <path d="M70.9961 192.502L227.93 192.502C268.652 192.502 299.219 161.643 299.219 123.362C299.219 83.8111 266.797 54.9048 224.609 54.9048C208.789 23.4595 180.078 3.14699 143.164 3.14699C96.2891 3.14699 57.7148 40.354 53.6133 87.1314C30.5664 93.6743 12.8906 113.108 12.8906 139.67C12.8906 168.772 34.1797 192.502 70.9961 192.502Z" fill="#ffffff"/>
 </g>
</svg>
