<?xml version="1.0" encoding="UTF-8"?>
<!--Generator: Apple Native CoreSVG 232.5-->
<!DOCTYPE svg
PUBLIC "-//W3C//DTD SVG 1.1//EN"
       "http://www.w3.org/Graphics/SVG/1.1/DTD/svg11.dtd">
<svg version="1.1" xmlns="http://www.w3.org/2000/svg" xmlns:xlink="http://www.w3.org/1999/xlink" width="299.219" height="314.551">
 <g>
  <rect height="314.551" opacity="0" width="299.219" x="0" y="0"/>
  <path d="M191.504 314.551C193.848 314.551 195.312 312.5 195.215 310.156L194.434 297.852L204.785 304.688C206.641 305.957 209.277 305.469 210.449 303.613C211.621 301.758 210.84 299.121 208.594 297.949L197.559 292.48L208.691 286.914C210.84 285.742 211.523 283.203 210.547 281.348C209.473 279.395 206.641 279.102 204.785 280.273L194.434 287.305L195.312 274.805C195.508 272.461 193.848 270.508 191.504 270.508C189.062 270.508 187.598 272.461 187.695 274.805L188.379 287.305L178.027 280.273C176.172 279.102 173.633 279.297 172.461 281.348C171.387 283.203 171.973 285.742 174.219 286.914L185.254 292.48L174.219 298.047C171.875 299.219 171.191 301.66 172.266 303.613C173.438 305.664 176.172 305.957 178.027 304.785L188.379 297.949L187.793 310.156C187.695 312.5 189.062 314.551 191.504 314.551Z" fill="#ffffff"/>
  <path d="M121.777 314.551C124.023 314.551 125.488 312.5 125.391 310.156L124.707 297.852L134.961 304.688C136.816 305.957 139.453 305.469 140.723 303.613C141.797 301.758 141.113 299.121 138.77 297.949L127.734 292.48L138.867 286.914C141.113 285.742 141.699 283.203 140.82 281.348C139.648 279.395 136.816 279.102 134.961 280.273L124.707 287.305L125.488 274.805C125.684 272.461 124.023 270.508 121.777 270.508C119.238 270.508 117.773 272.461 117.871 274.805L118.652 287.305L108.203 280.273C106.348 279.102 103.809 279.297 102.637 281.348C101.562 283.203 102.148 285.742 104.395 286.914L115.527 292.48L104.395 298.047C102.148 299.219 101.465 301.66 102.539 303.613C103.613 305.664 106.348 305.957 108.203 304.785L118.652 297.949L117.969 310.156C117.871 312.5 119.238 314.551 121.777 314.551Z" fill="#ffffff"/>
  <path d="M51.9531 314.551C54.1992 314.551 55.6641 312.5 55.5664 310.156L54.8828 297.852L65.2344 304.688C66.9922 305.957 69.6289 305.469 70.8984 303.613C72.0703 301.758 71.2891 299.121 68.9453 297.949L57.9102 292.48L69.043 286.914C71.2891 285.742 71.9727 283.203 70.9961 281.348C69.8242 279.395 66.9922 279.102 65.2344 280.273L54.8828 287.305L55.6641 274.805C55.8594 272.461 54.1992 270.508 51.9531 270.508C49.4141 270.508 47.9492 272.461 48.0469 274.805L48.8281 287.305L38.3789 280.273C36.5234 279.102 33.9844 279.297 32.8125 281.348C31.7383 283.203 32.3242 285.742 34.668 286.914L45.7031 292.48L34.668 298.047C32.3242 299.219 31.6406 301.66 32.7148 303.613C33.7891 305.664 36.5234 305.957 38.3789 304.785L48.8281 297.949L48.1445 310.156C48.0469 312.5 49.4141 314.551 51.9531 314.551Z" fill="#ffffff"/>
  <path d="M218.848 267.285C221.191 267.285 222.656 265.234 222.559 262.891L221.777 250.586L232.129 257.422C233.984 258.594 236.621 258.203 237.793 256.348C238.965 254.492 238.184 251.855 235.938 250.684L224.902 245.215L236.035 239.551C238.184 238.477 238.867 235.938 237.891 233.984C236.816 232.031 233.984 231.738 232.129 233.008L221.777 239.941L222.656 227.539C222.852 225.195 221.191 223.145 218.848 223.145C216.406 223.145 214.941 225.195 215.039 227.539L215.723 239.941L205.371 233.008C203.516 231.738 200.977 231.934 199.805 233.984C198.73 235.938 199.316 238.379 201.562 239.551L212.598 245.215L201.562 250.781C199.219 251.855 198.535 254.395 199.609 256.348C200.781 258.398 203.516 258.691 205.371 257.422L215.723 250.684L215.137 262.891C215.039 265.234 216.406 267.285 218.848 267.285Z" fill="#ffffff"/>
  <path d="M149.121 267.285C151.367 267.285 152.832 265.234 152.734 262.891L152.051 250.586L162.305 257.422C164.16 258.594 166.797 258.203 168.066 256.348C169.141 254.492 168.457 251.855 166.113 250.684L155.078 245.215L166.211 239.551C168.457 238.477 169.043 235.938 168.164 233.984C166.992 232.031 164.16 231.738 162.305 233.008L152.051 239.941L152.832 227.539C153.027 225.195 151.367 223.145 149.121 223.145C146.582 223.145 145.117 225.195 145.215 227.539L145.996 239.941L135.547 233.008C133.691 231.738 131.152 231.934 129.98 233.984C128.906 235.938 129.492 238.379 131.738 239.551L142.773 245.215L131.738 250.781C129.492 251.855 128.809 254.395 129.883 256.348C130.957 258.398 133.691 258.691 135.547 257.422L145.996 250.684L145.312 262.891C145.215 265.234 146.582 267.285 149.121 267.285Z" fill="#ffffff"/>
  <path d="M79.2969 267.285C81.543 267.285 83.0078 265.234 82.9102 262.891L82.2266 250.586L92.5781 257.422C94.3359 258.594 96.9727 258.203 98.2422 256.348C99.4141 254.492 98.6328 251.855 96.2891 250.684L85.2539 245.215L96.3867 239.551C98.6328 238.477 99.3164 235.938 98.3398 233.984C97.168 232.031 94.3359 231.738 92.5781 233.008L82.2266 239.941L83.0078 227.539C83.2031 225.195 81.543 223.145 79.2969 223.145C76.7578 223.145 75.293 225.195 75.3906 227.539L76.1719 239.941L65.7227 233.008C63.8672 231.738 61.3281 231.934 60.1562 233.984C59.082 235.938 59.668 238.379 62.0117 239.551L73.0469 245.215L62.0117 250.781C59.668 251.855 58.9844 254.395 60.0586 256.348C61.1328 258.398 63.8672 258.691 65.7227 257.422L76.1719 250.684L75.4883 262.891C75.3906 265.234 76.7578 267.285 79.2969 267.285Z" fill="#ffffff"/>
  <path d="M70.9961 204.102L227.93 204.102C268.652 204.102 299.219 173.242 299.219 134.961C299.219 95.4102 266.797 66.5039 224.609 66.5039C208.789 35.0586 180.078 14.7461 143.164 14.7461C96.2891 14.7461 57.7148 51.9531 53.6133 98.7305C30.5664 105.273 12.8906 124.707 12.8906 151.27C12.8906 180.371 34.1797 204.102 70.9961 204.102Z" fill="#ffffff"/>
 </g>
</svg>
