<?xml version="1.0" encoding="UTF-8"?>
<!--Generator: Apple Native CoreSVG 232.5-->
<!DOCTYPE svg
PUBLIC "-//W3C//DTD SVG 1.1//EN"
       "http://www.w3.org/Graphics/SVG/1.1/DTD/svg11.dtd">
<svg version="1.1" xmlns="http://www.w3.org/2000/svg" xmlns:xlink="http://www.w3.org/1999/xlink" width="299.219" height="318.856">
 <g>
  <rect height="318.856" opacity="0" width="299.219" x="0" y="0"/>
  <path d="M244.336 303.422C247.656 305.278 251.562 304.203 253.516 300.785L270.801 270.903C272.852 267.485 271.777 263.578 268.457 261.625C265.137 259.77 261.426 260.844 259.375 264.262L241.992 294.34C240.039 297.66 240.918 301.469 244.336 303.422Z" fill="#ffffff"/>
  <path d="M219.629 268.266C222.949 270.121 226.855 268.949 228.809 265.531L246.094 235.649C248.145 232.231 247.07 228.324 243.75 226.371C240.43 224.516 236.719 225.59 234.668 229.106L217.285 259.184C215.332 262.406 216.309 266.313 219.629 268.266Z" fill="#ffffff"/>
  <path d="M182.422 255.082L155.078 255.082L155.176 260.16L171.289 229.399C172.656 226.664 171.582 224.516 168.75 224.516L145.508 224.516C141.992 224.516 140.625 225.785 139.551 228.422L122.266 267.875C120.898 271 122.363 272.856 125.684 272.856L147.754 272.856L149.316 265.336L128.906 314.946C128.223 316.703 128.613 318.168 129.785 318.656C130.957 319.145 132.422 318.754 133.691 317.289L184.57 261.235C187.109 258.5 186.035 255.082 182.422 255.082Z" fill="#ffffff"/>
  <path d="M70.5078 303.422C73.8281 305.278 77.7344 304.203 79.6875 300.785L96.9727 270.903C99.0234 267.485 97.9492 263.578 94.6289 261.625C91.3086 259.77 87.5977 260.844 85.5469 264.262L68.1641 294.34C66.2109 297.66 67.1875 301.469 70.5078 303.422Z" fill="#ffffff"/>
  <path d="M45.8008 268.266C49.1211 270.121 53.125 268.949 54.9805 265.531L72.2656 235.649C74.3164 232.231 73.2422 228.324 70.0195 226.371C66.6016 224.516 62.8906 225.59 60.8398 229.106L43.457 259.184C41.5039 262.406 42.4805 266.313 45.8008 268.266Z" fill="#ffffff"/>
  <path d="M70.9961 206.254L227.93 206.254C268.652 206.254 299.219 175.395 299.219 137.114C299.219 97.5627 266.797 68.6565 224.609 68.6565C208.789 37.2112 180.078 16.8987 143.164 16.8987C96.2891 16.8987 57.7148 54.1057 53.6133 100.883C30.5664 107.426 12.8906 126.86 12.8906 153.422C12.8906 182.524 34.1797 206.254 70.9961 206.254Z" fill="#ffffff"/>
 </g>
</svg>
