<?xml version="1.0" encoding="UTF-8"?>
<!--Generator: Apple Native CoreSVG 232.5-->
<!DOCTYPE svg
PUBLIC "-//W3C//DTD SVG 1.1//EN"
       "http://www.w3.org/Graphics/SVG/1.1/DTD/svg11.dtd">
<svg version="1.1" xmlns="http://www.w3.org/2000/svg" xmlns:xlink="http://www.w3.org/1999/xlink" width="299.219" height="331.738">
 <g>
  <rect height="331.738" opacity="0" width="299.219" x="0" y="0"/>
  <path d="M196.191 312.891C198.535 312.891 200 310.84 199.902 308.594L199.121 296.191L209.473 303.027C211.328 304.297 213.965 303.906 215.137 302.051C216.309 300.098 215.527 297.461 213.184 296.387L202.246 290.918L213.281 285.254C215.527 284.082 216.211 281.641 215.234 279.688C214.16 277.734 211.328 277.441 209.473 278.613L199.121 285.645L200 273.242C200.195 270.801 198.535 268.848 196.191 268.848C193.75 268.848 192.285 270.801 192.383 273.242L193.066 285.645L182.617 278.613C180.859 277.441 178.32 277.637 177.148 279.688C175.977 281.641 176.66 284.082 178.906 285.254L189.941 290.918L178.906 296.387C176.562 297.559 175.879 300 176.953 302.051C178.125 304.004 180.859 304.297 182.617 303.125L193.066 296.289L192.48 308.594C192.383 310.84 193.75 312.891 196.191 312.891Z" fill="#ffffff"/>
  <path d="M124.316 331.738C126.562 331.738 128.027 329.688 127.93 327.344L127.246 315.039L137.598 321.875C139.453 323.047 141.992 322.656 143.262 320.801C144.434 318.945 143.652 316.309 141.309 315.137L130.371 309.668L141.406 304.004C143.652 302.93 144.336 300.391 143.359 298.535C142.188 296.484 139.453 296.191 137.598 297.461L127.246 304.395L128.027 291.992C128.223 289.648 126.562 287.695 124.316 287.695C121.875 287.695 120.41 289.648 120.508 291.992L121.191 304.395L110.742 297.461C108.887 296.191 106.445 296.387 105.273 298.535C104.102 300.391 104.785 302.93 107.031 304.004L118.066 309.668L107.031 315.234C104.688 316.406 104.004 318.848 105.078 320.801C106.25 322.852 108.887 323.145 110.742 321.973L121.191 315.137L120.605 327.344C120.508 329.688 121.875 331.738 124.316 331.738Z" fill="#ffffff"/>
  <path d="M64.1602 312.402C66.4062 312.402 67.8711 310.352 67.7734 308.105L67.0898 295.703L77.4414 302.539C79.2969 303.809 81.8359 303.418 83.1055 301.562C84.2773 299.707 83.4961 296.973 81.1523 295.898L70.2148 290.43L81.25 284.766C83.4961 283.594 84.1797 281.152 83.2031 279.199C82.0312 277.246 79.2969 276.953 77.4414 278.125L67.0898 285.156L67.8711 272.754C68.0664 270.312 66.4062 268.359 64.1602 268.359C61.7188 268.359 60.2539 270.312 60.3516 272.754L61.0352 285.156L50.5859 278.125C48.7305 276.953 46.2891 277.148 45.1172 279.199C43.9453 281.152 44.6289 283.594 46.875 284.766L57.9102 290.43L46.875 295.898C44.5312 297.07 43.8477 299.609 44.9219 301.562C46.0938 303.516 48.7305 303.809 50.5859 302.637L61.0352 295.801L60.4492 308.105C60.3516 310.352 61.7188 312.402 64.1602 312.402Z" fill="#ffffff"/>
  <path d="M218.555 259.082L227.93 242.676C229.98 239.258 229.004 235.352 225.684 233.398C222.363 231.543 218.555 232.715 216.504 236.035L207.031 252.637C205.273 255.859 206.055 259.766 209.473 261.719C212.695 263.574 216.699 262.402 218.555 259.082Z" fill="#ffffff"/>
  <path d="M141.504 277.832L162.012 242.383C163.965 238.867 162.988 235.059 159.766 233.105C156.445 231.152 152.539 232.227 150.586 235.742L129.98 271.484C128.125 274.707 129.004 278.613 132.422 280.566C135.645 282.422 139.648 281.25 141.504 277.832Z" fill="#ffffff"/>
  <path d="M86.5234 258.594L95.8984 242.188C97.9492 238.77 96.9727 234.863 93.6523 232.91C90.332 231.055 86.4258 232.227 84.4727 235.547L75 252.148C73.1445 255.469 74.0234 259.277 77.3438 261.23C80.6641 263.086 84.668 261.914 86.5234 258.594Z" fill="#ffffff"/>
  <path d="M70.9961 212.695L227.93 212.695C268.652 212.695 299.219 181.836 299.219 143.555C299.219 104.004 266.797 75.0977 224.609 75.0977C208.789 43.6523 180.078 23.3398 143.164 23.3398C96.2891 23.3398 57.7148 60.5469 53.6133 107.324C30.5664 113.867 12.8906 133.301 12.8906 159.863C12.8906 188.965 34.1797 212.695 70.9961 212.695Z" fill="#ffffff"/>
 </g>
</svg>
