<?xml version="1.0" encoding="UTF-8"?>
<!--Generator: Apple Native CoreSVG 232.5-->
<!DOCTYPE svg
PUBLIC "-//W3C//DTD SVG 1.1//EN"
       "http://www.w3.org/Graphics/SVG/1.1/DTD/svg11.dtd">
<svg version="1.1" xmlns="http://www.w3.org/2000/svg" xmlns:xlink="http://www.w3.org/1999/xlink" width="157.812" height="260.254">
 <g>
  <rect height="260.254" opacity="0" width="157.812" x="0" y="0"/>
  <path d="M0 251.953C0 256.445 3.61328 260.156 8.59375 260.156C83.1055 260.156 141.797 207.715 141.797 130.078C141.797 95.6055 113.281 67.0898 78.9062 67.0898C64.6484 67.0898 51.4648 72.5586 41.7969 81.4453C59.375 41.4062 100.293 16.3086 149.219 16.3086C154.199 16.3086 157.812 12.5977 157.812 8.10547C157.812 3.51562 154.199 0 149.219 0C74.8047 0 16.1133 52.3438 16.1133 130.078C16.1133 164.453 44.5312 192.969 78.9062 192.969C93.2617 192.969 106.348 187.5 116.016 178.711C98.4375 218.555 57.4219 243.848 8.59375 243.848C3.61328 243.848 0 247.363 0 251.953ZM61.5234 130.078C61.5234 120.41 69.3359 112.598 78.9062 112.598C88.5742 112.598 96.3867 120.41 96.3867 130.078C96.3867 139.551 88.5742 147.461 78.9062 147.461C69.3359 147.461 61.5234 139.648 61.5234 130.078Z" fill="#ffffff"/>
 </g>
</svg>
