<?xml version="1.0" encoding="UTF-8"?>
<!--Generator: Apple Native CoreSVG 232.5-->
<!DOCTYPE svg
PUBLIC "-//W3C//DTD SVG 1.1//EN"
       "http://www.w3.org/Graphics/SVG/1.1/DTD/svg11.dtd">
<svg version="1.1" xmlns="http://www.w3.org/2000/svg" xmlns:xlink="http://www.w3.org/1999/xlink" width="290.82" height="291.113">
 <g>
  <rect height="291.113" opacity="0" width="290.82" x="0" y="0"/>
  <path d="M72.6562 166.895L224.707 166.895C229.59 161.328 233.691 154.98 236.816 147.852C238.77 143.457 238.379 139.551 236.133 137.109C234.18 135.059 230.664 134.668 226.66 136.133C217.969 139.453 207.91 141.309 195.312 141.309C145.41 141.309 114.16 110.645 114.16 61.4258C114.16 48.8281 116.406 35.6445 120.117 28.125C122.168 24.0234 121.973 20.0195 119.824 17.4805C117.676 14.9414 113.477 14.3555 108.691 16.4062C75.0977 30.957 52.2461 65.918 52.2461 106.836C52.2461 130.078 59.4727 150.879 72.6562 166.895Z" fill="#ffffff"/>
  <path d="M25.9766 194.336L283.789 194.336C287.695 194.336 290.82 191.309 290.82 187.402C290.82 183.496 287.695 180.469 283.789 180.469L25.9766 180.469C22.0703 180.469 18.9453 183.496 18.9453 187.402C18.9453 191.309 22.0703 194.336 25.9766 194.336ZM7.03125 242.773L264.844 242.773C268.75 242.773 271.777 239.746 271.777 235.84C271.777 231.836 268.75 228.906 264.844 228.906L7.03125 228.906C3.125 228.906 0 231.836 0 235.84C0 239.746 3.125 242.773 7.03125 242.773ZM25.9766 291.113L283.789 291.113C287.695 291.113 290.82 288.184 290.82 284.277C290.82 280.273 287.695 277.344 283.789 277.344L25.9766 277.344C22.0703 277.344 18.9453 280.273 18.9453 284.277C18.9453 288.184 22.0703 291.113 25.9766 291.113Z" fill="#ffffff"/>
 </g>
</svg>
