<?xml version="1.0" encoding="UTF-8"?>
<!--Generator: Apple Native CoreSVG 232.5-->
<!DOCTYPE svg
PUBLIC "-//W3C//DTD SVG 1.1//EN"
       "http://www.w3.org/Graphics/SVG/1.1/DTD/svg11.dtd">
<svg version="1.1" xmlns="http://www.w3.org/2000/svg" xmlns:xlink="http://www.w3.org/1999/xlink" width="277.148" height="274.316">
 <g>
  <rect height="274.316" opacity="0" width="277.148" x="0" y="0"/>
  <path d="M229.883 144.141C231.934 144.141 233.301 142.773 233.594 140.625C238.086 106.934 239.258 106.543 273.438 100.684C275.781 100.293 277.148 99.1211 277.148 96.9727C277.148 94.9219 275.781 93.6523 273.828 93.2617C239.551 86.7188 238.086 87.1094 233.594 53.3203C233.301 51.1719 231.934 49.8047 229.883 49.8047C227.93 49.8047 226.465 51.1719 226.27 53.2227C221.582 87.3047 220.898 87.9883 185.938 93.2617C184.082 93.5547 182.617 94.9219 182.617 96.9727C182.617 99.0234 184.082 100.293 185.938 100.684C220.898 107.422 221.484 107.129 226.27 140.82C226.465 142.773 227.93 144.141 229.883 144.141ZM169.629 60.6445C170.898 60.6445 171.68 59.8633 171.875 58.5938C175.586 37.5 175.684 36.7188 197.852 32.6172C199.121 32.4219 200 31.6406 200 30.3711C200 29.0039 199.121 28.3203 197.852 28.0273C175.781 23.5352 176.562 22.8516 171.875 2.05078C171.68 0.78125 170.898 0 169.629 0C168.359 0 167.676 0.78125 167.383 2.05078C162.793 22.8516 163.77 23.5352 141.504 28.0273C140.234 28.3203 139.355 29.0039 139.355 30.3711C139.355 31.6406 140.234 32.4219 141.504 32.6172C163.77 37.1094 163.574 37.5 167.383 58.5938C167.676 59.8633 168.359 60.6445 169.629 60.6445Z" fill="#ffffff"/>
  <path d="M135.742 258.203C181.055 258.203 217.773 236.035 234.473 197.656C236.23 193.555 236.035 190.039 233.984 187.891C232.324 186.133 229.102 185.742 225.391 187.207C215.039 191.211 203.32 193.262 189.16 193.262C131.641 193.262 94.7266 157.617 94.7266 100.488C94.7266 86.6211 97.2656 71.1914 101.855 61.7188C103.906 57.5195 103.809 54.0039 101.855 51.7578C99.9023 49.5117 96.1914 49.1211 91.5039 51.0742C53.9062 67.0898 28.5156 106.348 28.5156 151.953C28.5156 212.305 72.2656 258.203 135.742 258.203Z" fill="#ffffff"/>
 </g>
</svg>
