<?xml version="1.0" encoding="UTF-8"?>
<!--Generator: Apple Native CoreSVG 232.5-->
<!DOCTYPE svg
PUBLIC "-//W3C//DTD SVG 1.1//EN"
       "http://www.w3.org/Graphics/SVG/1.1/DTD/svg11.dtd">
<svg version="1.1" xmlns="http://www.w3.org/2000/svg" xmlns:xlink="http://www.w3.org/1999/xlink" width="334.668" height="250.293">
 <g>
  <rect height="250.293" opacity="0" width="334.668" x="0" y="0"/>
  <path d="M163.77 41.9922C169.531 40.0391 174.414 39.1602 180.176 39.1602C197.971 39.1602 213.374 48.6742 221.578 63.2494C221.102 63.1885 220.61 63.1836 220.117 63.1836C198.047 63.1836 178.418 72.4609 164.844 87.793C161.328 87.207 158.008 86.8164 154.492 86.8164C126.66 86.8164 103.32 104.492 94.7266 129.785C74.0054 134.398 57.3467 149.387 50.3078 168.659C29.0435 162.03 15.5273 143.577 15.5273 121.191C15.5273 96.4844 33.2031 75.9766 57.0312 71.4844C58.4961 40.7227 83.2031 15.5273 114.551 15.5273C135.254 15.5273 152.93 25.5859 163.77 41.9922Z" fill="#ffffff"/>
  <path d="M109.18 234.668L266.406 234.668C297.656 234.668 319.141 212.695 319.141 184.375C319.141 159.766 301.465 139.258 277.734 134.766C276.172 104.004 251.465 78.8086 220.117 78.8086C199.414 78.8086 181.738 88.8672 170.898 105.176C165.137 103.32 160.254 102.441 154.492 102.441C130.371 102.441 110.645 119.922 107.227 143.75C82.0312 144.434 62.207 164.844 62.207 189.16C62.207 214.844 81.1523 234.668 109.18 234.668Z" fill="#ffffff"/>
 </g>
</svg>
