<?xml version="1.0" encoding="UTF-8"?>
<!--Generator: Apple Native CoreSVG 232.5-->
<!DOCTYPE svg
PUBLIC "-//W3C//DTD SVG 1.1//EN"
       "http://www.w3.org/Graphics/SVG/1.1/DTD/svg11.dtd">
<svg version="1.1" xmlns="http://www.w3.org/2000/svg" xmlns:xlink="http://www.w3.org/1999/xlink" width="220.936" height="252.832">
 <g>
  <rect height="252.832" opacity="0" width="220.936" x="0" y="0"/>
  <path d="M110.468 252.539C115.155 252.539 117.987 249.316 117.987 244.531L117.987 214.258L142.011 228.027C146.015 230.273 150.116 229.883 152.46 225.977C154.413 222.559 153.241 218.457 149.042 216.113L117.987 198.438L117.987 180.176L115.937 135.938L153.339 159.766L169.257 168.848L169.062 204.59C169.062 209.375 171.991 212.598 175.898 212.598C180.39 212.598 182.734 209.277 182.734 204.59L182.831 176.66L209.198 191.992C213.398 194.434 217.499 193.359 219.745 189.453C221.894 185.449 220.624 181.25 216.718 179.004L190.351 163.867L214.57 149.609C218.476 147.266 220.136 143.555 217.89 139.844C215.644 136.328 211.64 135.352 207.636 137.695L176.581 155.859L160.761 146.777L120.82 126.367L160.859 105.957L176.679 96.6797L207.441 114.844C211.542 117.188 215.937 116.309 217.987 112.793C220.136 108.984 218.378 105.273 214.472 102.832L190.448 88.7695L216.718 73.7305C220.917 71.2891 222.089 67.2852 219.745 63.0859C217.597 59.2773 213.398 58.3008 209.296 60.7422L182.831 75.8789L182.734 47.9492C182.734 43.2617 180.39 40.0391 175.8 40.0391C171.894 40.0391 169.062 43.1641 169.062 47.9492L169.159 83.7891L153.339 92.8711L115.937 116.797L117.987 72.4609L117.987 54.1016L149.042 36.4258C153.241 34.082 154.413 29.9805 152.46 26.5625C150.116 22.6562 146.015 22.2656 142.011 24.5117L117.987 38.2812L117.987 8.00781C117.987 3.22266 115.155 0 110.468 0C105.976 0 103.046 3.22266 103.046 8.00781L103.046 38.3789L78.632 24.5117C74.6281 22.2656 70.7219 22.6562 68.3781 26.5625C66.5226 29.9805 67.7922 34.082 71.7961 36.4258L103.046 54.1992L103.046 72.4609L105.097 116.797L67.5969 92.8711L51.6789 83.7891L51.8742 47.9492C51.8742 43.1641 49.1398 40.0391 45.1359 40.0391C40.5461 40.0391 38.3 43.2617 38.3 47.9492L38.1047 75.8789L11.7375 60.7422C7.63593 58.4961 3.33906 59.2773 1.19062 63.0859C-1.15313 67.2852 0.214056 71.3867 4.21796 73.7305L30.4875 88.7695L6.46406 102.832C2.46015 105.273 0.799993 108.691 3.04609 112.891C4.99921 116.309 9.29609 117.188 13.4953 114.844L44.3547 96.7773L60.0773 105.957L100.116 126.367L60.175 146.777L44.257 155.859L13.3976 137.695C9.29609 135.352 5.09687 136.328 3.2414 139.648C0.995306 143.848 2.46015 147.266 6.46406 149.609L30.5851 163.867L4.31562 179.004C0.214056 181.348-1.05548 185.645 1.19062 189.453C3.53437 193.457 7.73359 194.238 11.7375 191.992L38.1047 176.855L38.2023 204.59C38.2023 209.277 40.5461 212.598 45.1359 212.598C48.9445 212.598 51.8742 209.375 51.8742 204.59L51.7766 168.848L67.5969 159.863L105.097 135.938L103.046 180.176L103.046 198.34L71.7961 216.113C67.7922 218.457 66.5226 222.559 68.3781 225.977C70.7219 229.883 74.6281 230.273 78.632 228.027L103.046 214.16L103.046 244.531C103.046 249.316 105.976 252.539 110.468 252.539Z" fill="#ffffff"/>
 </g>
</svg>
