<?xml version="1.0" encoding="UTF-8"?>
<!--Generator: Apple Native CoreSVG 232.5-->
<!DOCTYPE svg
PUBLIC "-//W3C//DTD SVG 1.1//EN"
       "http://www.w3.org/Graphics/SVG/1.1/DTD/svg11.dtd">
<svg version="1.1" xmlns="http://www.w3.org/2000/svg" xmlns:xlink="http://www.w3.org/1999/xlink" width="271.191" height="271.973">
 <g>
  <rect height="271.973" opacity="0" width="271.191" x="0" y="0"/>
  <path d="M135.547 46.9727C140.723 46.9727 144.824 42.7734 144.824 37.6953L144.824 9.27734C144.824 4.19922 140.723 0 135.547 0C130.469 0 126.367 4.19922 126.367 9.27734L126.367 37.6953C126.367 42.7734 130.469 46.9727 135.547 46.9727ZM198.34 73.1445C201.953 76.6602 207.812 76.7578 211.523 73.1445L231.641 53.0273C235.156 49.4141 235.156 43.457 231.641 39.8438C228.027 36.3281 222.168 36.3281 218.555 39.8438L198.34 60.0586C194.824 63.6719 194.824 69.5312 198.34 73.1445ZM224.316 135.938C224.316 141.016 228.516 145.117 233.594 145.117L261.914 145.117C266.992 145.117 271.191 141.016 271.191 135.938C271.191 130.859 266.992 126.66 261.914 126.66L233.594 126.66C228.516 126.66 224.316 130.859 224.316 135.938ZM198.34 198.73C194.824 202.344 194.824 208.203 198.34 211.816L218.555 232.031C222.168 235.547 228.027 235.449 231.641 231.934C235.156 228.32 235.156 222.559 231.641 218.945L211.426 198.73C207.812 195.215 201.953 195.215 198.34 198.73ZM135.547 224.902C130.469 224.902 126.367 229.004 126.367 234.082L126.367 262.5C126.367 267.676 130.469 271.777 135.547 271.777C140.723 271.777 144.824 267.676 144.824 262.5L144.824 234.082C144.824 229.004 140.723 224.902 135.547 224.902ZM72.8516 198.73C69.2383 195.215 63.2812 195.215 59.668 198.73L39.5508 218.848C36.0352 222.461 36.0352 228.223 39.4531 231.836C43.0664 235.352 48.9258 235.449 52.5391 231.934L72.7539 211.816C76.2695 208.203 76.2695 202.344 72.8516 198.73ZM46.7773 135.938C46.7773 130.859 42.6758 126.66 37.5977 126.66L9.27734 126.66C4.19922 126.66 0 130.859 0 135.938C0 141.016 4.19922 145.117 9.27734 145.117L37.5977 145.117C42.6758 145.117 46.7773 141.016 46.7773 135.938ZM72.7539 73.1445C76.2695 69.6289 76.2695 63.5742 72.8516 60.0586L52.6367 39.8438C49.1211 36.4258 43.2617 36.3281 39.6484 39.8438C36.1328 43.457 36.1328 49.4141 39.5508 52.9297L59.668 73.1445C63.2812 76.6602 69.1406 76.6602 72.7539 73.1445Z" fill="#FFC107"/>
  <path d="M135.449 198.828C169.824 198.828 198.34 170.312 198.34 135.938C198.34 101.465 169.824 72.9492 135.449 72.9492C101.074 72.9492 72.6562 101.465 72.6562 135.938C72.6562 170.312 101.074 198.828 135.449 198.828Z" fill="#FFC107"/>
 </g>
</svg>
