<?xml version="1.0" encoding="UTF-8"?>
<!--Generator: Apple Native CoreSVG 232.5-->
<!DOCTYPE svg
PUBLIC "-//W3C//DTD SVG 1.1//EN"
       "http://www.w3.org/Graphics/SVG/1.1/DTD/svg11.dtd">
<svg version="1.1" xmlns="http://www.w3.org/2000/svg" xmlns:xlink="http://www.w3.org/1999/xlink" width="290.82" height="303.027">
 <g>
  <rect height="303.027" opacity="0" width="290.82" x="0" y="0"/>
  <path d="M212.891 145.312C212.891 108.398 182.324 77.7344 145.41 77.7344C108.496 77.7344 77.9297 108.398 77.9297 145.312C77.9297 155.176 80.3711 164.551 84.375 172.852L206.348 172.852C210.449 164.551 212.891 155.176 212.891 145.312ZM9.375 150.879L44.043 150.879C49.5117 150.879 53.6133 147.07 53.5156 142.188C53.418 137.5 49.5117 133.496 44.043 133.496L9.375 133.496C4.00391 133.496 0 137.402 0 142.188C0 146.973 4.00391 150.879 9.375 150.879ZM80.4688 80.4688C83.6914 77.0508 83.6914 71.3867 79.8828 67.5781L55.3711 43.0664C51.4648 39.1602 45.9961 39.3555 42.5781 42.6758C39.1602 45.9961 39.0625 51.5625 43.0664 55.4688L67.5781 79.8828C71.3867 83.7891 77.1484 83.8867 80.4688 80.4688ZM145.41 53.6133C150.195 53.5156 154.102 49.5117 154.102 44.043L154.102 9.47266C154.102 4.00391 150.195 0 145.41 0C140.625 0 136.719 4.00391 136.719 9.47266L136.719 44.043C136.719 49.5117 140.625 53.7109 145.41 53.6133ZM210.352 80.4688C213.77 83.7891 219.434 83.7891 223.242 79.8828L247.754 55.4688C251.66 51.5625 251.562 46.0938 248.145 42.6758C244.922 39.2578 239.355 39.1602 235.352 43.0664L210.938 67.5781C207.031 71.3867 206.934 77.1484 210.352 80.4688ZM246.777 150.879L281.348 150.879C286.816 150.977 290.82 147.07 290.82 142.188C290.82 137.5 286.816 133.594 281.348 133.496L246.777 133.496C241.309 133.496 237.109 137.402 237.207 142.188C237.305 146.973 241.309 150.879 246.777 150.879Z" fill="#ffffff"/>
  <path d="M25.9766 200.293L283.789 200.293C287.695 200.293 290.82 197.266 290.82 193.359C290.82 189.453 287.695 186.426 283.789 186.426L25.9766 186.426C22.0703 186.426 18.9453 189.453 18.9453 193.359C18.9453 197.266 22.0703 200.293 25.9766 200.293ZM7.03125 248.73L264.844 248.73C268.75 248.73 271.777 245.703 271.777 241.797C271.777 237.793 268.75 234.863 264.844 234.863L7.03125 234.863C3.125 234.863 0 237.793 0 241.797C0 245.703 3.125 248.73 7.03125 248.73ZM25.9766 297.07L283.789 297.07C287.695 297.07 290.82 294.141 290.82 290.234C290.82 286.23 287.695 283.301 283.789 283.301L25.9766 283.301C22.0703 283.301 18.9453 286.23 18.9453 290.234C18.9453 294.141 22.0703 297.07 25.9766 297.07Z" fill="#ffffff"/>
 </g>
</svg>
