<?xml version="1.0" standalone="no"?>
<!DOCTYPE svg PUBLIC "-//W3C//DTD SVG 20010904//EN"
 "http://www.w3.org/TR/2001/REC-SVG-20010904/DTD/svg10.dtd">
<svg version="1.0" xmlns="http://www.w3.org/2000/svg"
 width="880.000000pt" height="690.000000pt" viewBox="320 410 880 690"
 preserveAspectRatio="xMidYMid meet">

<!-- Sun body, 2 diagonal rays, 2 horizontal bars (yellow) -->
<g transform="translate(0.000000,1536.000000) scale(0.100000,-0.100000)"
fill="#FFC107" stroke="none">
<path d="M10153 8589 c-87 -17 -123 -46 -451 -373 -366 -364 -382 -385 -382
-505 0 -83 22 -132 82 -187 54 -50 104 -68 183 -68 113 1 126 11 493 377 371
370 382 385 382 496 -1 170 -145 292 -307 260z"/>
<path d="M5065 8571 c-101 -46 -155 -129 -155 -242 0 -111 11 -126 382 -496
373 -372 379 -377 503 -377 83 0 133 22 187 82 73 80 88 202 38 302 -15 30
-128 152 -344 368 -364 366 -385 382 -505 382 -42 0 -80 -7 -106 -19z"/>
<path d="M7486 7610 c-209 -26 -394 -83 -591 -181 -357 -177 -638 -458 -814
-814 -110 -223 -161 -404 -183 -648 -22 -258 27 -578 120 -775 l17 -37 1646
-3 c1310 -2 1648 1 1656 10 16 21 59 138 82 225 88 330 78 662 -30 993 -42
130 -156 356 -233 463 -295 411 -691 663 -1181 754 -95 17 -392 25 -489 13z"/>
<path d="M4071 6164 c-79 -21 -140 -69 -175 -138 -73 -141 -8 -302 146 -364
39 -15 91 -17 528 -17 l485 0 53 24 c67 30 135 104 152 166 37 132 -36 271
-169 322 -41 16 -95 18 -506 20 -380 2 -469 0 -514 -13z"/>
<path d="M10314 6166 c-261 -64 -290 -386 -44 -500 44 -20 59 -21 530 -21 535
0 527 -1 609 64 129 102 124 311 -10 407 -84 61 -114 64 -599 63 -309 0 -450
-4 -486 -13z"/>
</g>

<!-- Arrow and bottom horizontal line (white) -->
<g transform="translate(0.000000,1536.000000) scale(0.100000,-0.100000)"
fill="#ffffff" stroke="none">
<path d="M7620 11121 c-71 -23 -140 -82 -176 -151 -18 -33 -19 -75 -22 -730
-2 -554 0 -734 13 -885 22 -278 31 -264 -81 -133 -153 178 -571 595 -626 624
-88 45 -206 29 -276 -39 -60 -58 -77 -179 -37 -257 12 -23 467 -452 1073
-1012 82 -76 127 -98 197 -98 70 0 115 22 197 98 642 593 1061 989 1073 1012
40 78 23 199 -37 257 -70 68 -188 84 -276 39 -55 -29 -434 -407 -611 -609
-130 -149 -119 -162 -96 123 13 148 15 322 13 880 -3 655 -4 697 -22 730 -26
49 -84 108 -130 132 -43 22 -136 32 -176 19z"/>
<path d="M3648 4756 c-131 -35 -219 -155 -205 -278 11 -88 66 -162 157 -209
l45 -24 4040 0 4040 0 45 24 c106 55 154 129 155 236 0 59 -4 78 -27 116 -33
56 -76 94 -138 123 l-45 21 -4010 2 c-3211 1 -4019 -1 -4057 -11z"/>
</g>
</svg>
