<?xml version="1.0" encoding="UTF-8"?>
<!--Generator: Apple Native CoreSVG 232.5-->
<!DOCTYPE svg
PUBLIC "-//W3C//DTD SVG 1.1//EN"
       "http://www.w3.org/Graphics/SVG/1.1/DTD/svg11.dtd">
<svg version="1.1" xmlns="http://www.w3.org/2000/svg" xmlns:xlink="http://www.w3.org/1999/xlink" width="265.276" height="306.738">
 <g>
  <rect height="306.738" opacity="0" width="265.276" x="0" y="0"/>
  <path d="M187.863 8.10547L187.765 28.5156L204.073 19.1406C207.003 17.3828 210.519 17.9688 212.179 20.8984C213.839 23.9258 212.57 27.0508 209.347 29.0039L187.667 41.5039L187.374 86.9141L226.437 64.1602L226.534 39.2578C226.534 35.4492 228.585 32.8125 232.198 32.8125C235.421 32.8125 237.667 35.4492 237.667 38.9648L237.667 57.5195L255.831 47.0703C258.859 45.3125 262.667 45.8008 264.425 48.9258C266.281 52.2461 265.011 55.7617 261.495 57.7148L243.624 67.8711L259.933 77.3438C262.765 78.9062 264.034 82.3242 262.472 85.1562C260.519 88.2812 257.101 88.5742 254.073 86.8164L232.296 74.3164L193.038 96.582L232.003 118.848L253.781 106.348C256.906 104.59 260.421 104.98 262.179 108.008C263.741 110.938 262.57 114.258 259.542 115.918L243.331 125.293L261.398 135.742C264.816 137.598 266.281 141.113 264.425 144.336C262.472 147.559 258.761 147.949 255.441 145.996L237.472 135.645L237.374 154.297C237.374 157.52 235.128 160.449 231.906 160.449C228.39 160.352 226.241 157.52 226.241 154.004L226.241 129.004L187.374 106.25L187.667 151.465L209.249 164.062C212.472 165.918 213.839 169.043 212.081 172.168C210.421 175.098 206.906 175.586 203.976 173.926L187.765 164.551L187.863 185.059C187.863 188.867 185.616 191.895 181.906 191.895C178.097 191.895 175.851 188.867 175.851 185.059L175.948 164.551L159.835 173.926C156.808 175.586 153.39 175.098 151.73 172.168C149.972 169.043 151.339 165.918 154.464 164.062L176.046 151.465L176.339 106.25L148.645 122.463L148.657 109.22L170.773 96.582L148.678 84.0506L148.689 70.8078L176.339 86.9141L176.046 41.5039L154.366 29.0039C151.241 27.0508 149.874 23.9258 151.632 20.8984C153.292 17.9688 156.71 17.3828 159.738 19.1406L175.948 28.5156L175.851 8.10547C175.851 4.39453 178.097 1.36719 181.906 1.36719C185.616 1.36719 187.863 4.39453 187.863 8.10547Z" fill="#ffffff"/>
  <path d="M97.0422 292.773C132.687 292.773 161.495 263.867 161.495 228.32C161.495 209.57 153.683 192.969 138.546 179.688C135.616 177.148 135.031 175.488 135.031 171.387L135.128 54.7852C135.128 30.3711 119.601 13.6719 97.0422 13.6719C74.386 13.6719 58.761 30.3711 58.761 54.7852L58.8586 171.387C58.8586 175.488 58.2727 177.148 55.343 179.688C40.2063 192.969 32.3938 209.57 32.3938 228.32C32.3938 263.867 61.2024 292.773 97.0422 292.773ZM97.0422 277.148C70.0891 277.148 48.2141 255.176 48.2141 228.32C48.2141 212.5 55.5383 198.145 69.1126 188.965C73.2141 186.133 74.7766 183.301 74.7766 178.027L74.7766 55.3711C74.7766 40.0391 83.8586 29.4922 97.0422 29.4922C110.031 29.4922 119.113 40.0391 119.113 55.3711L119.113 178.027C119.113 183.301 120.675 186.133 124.777 188.965C138.351 198.145 145.675 212.5 145.675 228.32C145.675 255.176 123.8 277.148 97.0422 277.148Z" fill="#ffffff"/>
  <path d="M96.9446 260.156C114.523 260.156 128.683 245.996 128.683 228.223C128.683 215.918 121.847 205.762 111.691 200.293C107.394 198.047 106.027 196.387 106.027 190.039L106.027 166.016C106.027 159.961 102.023 155.957 96.9446 155.957C91.8665 155.957 87.8626 159.961 87.8626 166.016L87.8626 190.039C87.8626 196.387 86.4954 198.047 82.1985 200.293C72.0422 205.762 65.2063 215.918 65.2063 228.223C65.2063 245.996 79.3665 260.156 96.9446 260.156Z" fill="#ffffff"/>
 </g>
</svg>
