<?xml version="1.0" encoding="UTF-8"?>
<!--Generator: Apple Native CoreSVG 232.5-->
<!DOCTYPE svg
PUBLIC "-//W3C//DTD SVG 1.1//EN"
       "http://www.w3.org/Graphics/SVG/1.1/DTD/svg11.dtd">
<svg version="1.1" xmlns="http://www.w3.org/2000/svg" xmlns:xlink="http://www.w3.org/1999/xlink" width="266.699" height="263.574">
 <g>
  <rect height="263.574" opacity="0" width="266.699" x="0" y="0"/>
  <path d="M228.711 223.242C231.25 223.242 233.105 220.996 232.91 218.359L232.324 207.227L241.699 213.379C243.75 214.746 246.68 214.258 248.145 212.109C249.609 209.863 248.535 206.836 245.898 205.664L236.035 200.684L246.094 195.508C248.34 194.336 249.512 191.602 248.145 189.16C246.973 187.012 243.848 186.426 241.602 187.891L232.324 194.141L233.008 183.105C233.203 180.371 231.348 178.027 228.711 178.027C225.879 178.027 224.023 180.176 224.316 183.008L224.902 194.238L215.43 187.891C213.184 186.523 210.352 186.816 209.082 189.16C207.715 191.602 208.691 194.238 211.133 195.508L220.996 200.684L211.23 205.664C208.691 206.738 207.52 209.57 208.984 212.109C210.156 214.258 213.184 214.746 215.43 213.281L224.902 207.227L224.414 218.359C224.316 221.094 225.977 223.242 228.711 223.242Z" fill="#ffffff"/>
  <path d="M228.711 45.3125C231.25 45.3125 233.105 42.9688 232.91 40.332L232.324 29.2969L241.699 35.3516C243.75 36.7188 246.68 36.3281 248.145 34.082C249.609 31.8359 248.535 28.8086 245.898 27.7344L236.035 22.6562L246.094 17.4805C248.34 16.3086 249.512 13.5742 248.145 11.1328C246.973 8.98438 243.848 8.39844 241.602 9.96094L232.324 16.1133L233.008 5.07812C233.203 2.34375 231.348 0 228.711 0C225.879 0 224.023 2.14844 224.316 4.98047L224.902 16.2109L215.43 9.96094C213.184 8.49609 210.352 8.78906 209.082 11.1328C207.715 13.5742 208.691 16.3086 211.133 17.4805L220.996 22.6562L211.23 27.6367C208.691 28.8086 207.52 31.6406 208.984 34.082C210.156 36.2305 213.184 36.7188 215.43 35.3516L224.902 29.1992L224.414 40.332C224.316 43.1641 225.977 45.3125 228.711 45.3125Z" fill="#ffffff"/>
  <path d="M18.9453 95.7031C36.8164 89.5508 55.6641 86.3281 73.8281 86.3281C98.0469 86.3281 114.844 90.332 137.598 90.332C159.375 90.332 173.242 75.4883 173.242 56.0547C173.242 36.3281 158.301 21.9727 139.355 21.9727C124.609 21.9727 112.109 31.4453 107.52 43.75C105.859 47.4609 106.738 51.5625 110.645 53.3203C114.16 54.9805 118.164 53.7109 120.41 49.3164C122.949 41.9922 130.371 36.1328 139.355 36.1328C150.488 36.1328 159.082 44.2383 159.082 56.0547C159.082 68.0664 150.586 76.1719 137.598 76.1719C115.625 76.1719 98.8281 72.168 73.8281 72.168C53.418 72.168 32.8125 75.9766 14.4531 82.3242C9.86328 83.6914 8.20312 87.5977 9.375 91.4062C10.4492 95.1172 14.1602 97.168 18.9453 95.7031ZM217.48 153.516C246.777 153.516 266.699 135.352 266.699 109.863C266.699 85.0586 247.656 66.6016 223.535 66.6016C200.977 66.6016 184.277 82.7148 181.543 103.418C180.957 107.91 183.594 111.523 187.5 112.012C191.504 112.5 194.922 109.961 195.801 104.98C197.754 91.0156 209.277 80.7617 223.535 80.7617C239.648 80.7617 252.539 92.9688 252.539 109.863C252.539 127.246 238.867 139.258 217.48 139.258C178.516 139.258 137.012 117.383 86.3281 117.383C60.0586 117.383 36.6211 121.875 14.4531 129.883C10.0586 131.445 8.20312 135.352 9.375 139.062C10.4492 142.871 14.2578 145.02 18.9453 143.359C39.5508 135.059 61.1328 131.641 86.3281 131.641C136.621 131.641 175 153.516 217.48 153.516ZM137.793 241.699C156.543 241.699 170.996 227.734 170.996 207.91C170.996 178.906 141.016 162.695 86.0352 162.695C62.0117 162.695 36.0352 167.48 14.4531 175.098C10.0586 176.562 8.20312 180.469 9.375 184.18C10.4492 187.988 14.2578 190.234 18.9453 188.574C39.3555 181.055 62.8906 176.855 86.0352 176.855C132.129 176.855 156.836 188.77 156.836 207.91C156.836 219.922 148.438 227.539 137.793 227.539C127.344 227.539 120.605 220.605 118.848 209.57C118.164 205.469 115.234 202.148 110.645 202.441C105.762 202.734 103.711 206.934 104.297 211.328C106.543 228.613 119.238 241.699 137.793 241.699Z" fill="#ffffff"/>
 </g>
</svg>
