<?xml version="1.0" encoding="UTF-8"?>
<!--Generator: Apple Native CoreSVG 232.5-->
<!DOCTYPE svg
PUBLIC "-//W3C//DTD SVG 1.1//EN"
       "http://www.w3.org/Graphics/SVG/1.1/DTD/svg11.dtd">
<svg version="1.1" xmlns="http://www.w3.org/2000/svg" xmlns:xlink="http://www.w3.org/1999/xlink" width="266.699" height="219.824">
 <g>
  <rect height="219.824" opacity="0" width="266.699" x="0" y="0"/>
  <path d="M18.9453 73.8281C36.8164 67.6758 55.6641 64.4531 73.8281 64.4531C98.0469 64.4531 114.844 68.457 137.598 68.457C159.375 68.457 173.242 53.6133 173.242 34.1797C173.242 14.4531 158.301 0.0976562 139.355 0.0976562C124.609 0.0976562 112.109 9.57031 107.52 21.875C105.859 25.5859 106.738 29.6875 110.645 31.4453C114.16 33.1055 118.164 31.8359 120.41 27.4414C122.949 20.1172 130.371 14.2578 139.355 14.2578C150.488 14.2578 159.082 22.3633 159.082 34.1797C159.082 46.1914 150.586 54.2969 137.598 54.2969C115.625 54.2969 98.8281 50.293 73.8281 50.293C53.418 50.293 32.8125 54.1016 14.4531 60.4492C9.86328 61.8164 8.20312 65.7227 9.375 69.5312C10.4492 73.2422 14.1602 75.293 18.9453 73.8281ZM217.48 131.641C246.777 131.641 266.699 113.477 266.699 87.9883C266.699 63.1836 247.656 44.7266 223.535 44.7266C200.977 44.7266 184.277 60.8398 181.543 81.543C180.957 86.0352 183.594 89.6484 187.5 90.1367C191.504 90.625 194.922 88.0859 195.801 83.1055C197.754 69.1406 209.277 58.8867 223.535 58.8867C239.648 58.8867 252.539 71.0938 252.539 87.9883C252.539 105.371 238.867 117.383 217.48 117.383C178.516 117.383 137.012 95.5078 86.3281 95.5078C60.0586 95.5078 36.6211 100 14.4531 108.008C10.0586 109.57 8.20312 113.477 9.375 117.188C10.4492 120.996 14.2578 123.145 18.9453 121.484C39.5508 113.184 61.1328 109.766 86.3281 109.766C136.621 109.766 175 131.641 217.48 131.641ZM137.793 219.824C156.543 219.824 170.996 205.859 170.996 186.035C170.996 157.031 141.016 140.82 86.0352 140.82C62.0117 140.82 36.0352 145.605 14.4531 153.223C10.0586 154.688 8.20312 158.594 9.375 162.305C10.4492 166.113 14.2578 168.359 18.9453 166.699C39.3555 159.18 62.8906 154.98 86.0352 154.98C132.129 154.98 156.836 166.895 156.836 186.035C156.836 198.047 148.438 205.664 137.793 205.664C127.344 205.664 120.605 198.73 118.848 187.695C118.164 183.594 115.234 180.273 110.645 180.566C105.762 180.859 103.711 185.059 104.297 189.453C106.543 206.738 119.238 219.824 137.793 219.824Z" fill="#ffffff"/>
 </g>
</svg>
